{
  "asset": {
    "generator": "Khronos glTF Blender I/O v3.2.43",
    "version": "2.0"
  },
  "scene": 0,
  "scenes": [
    {
      "name": "Scene",
      "nodes": [
        0
      ]
    }
  ],
  "nodes": [
    {
      "mesh": 0,
      "name": "celandine_01_e_LOD0"
    }
  ],
  "materials": [
    {
      "alphaCutoff": 0.5,
      "alphaMode": "MASK",
      "doubleSided": true,
      "name": "celandine_01",
      "normalTexture": {
        "index": 0
      },
      "pbrMetallicRoughness": {
        "baseColorTexture": {
          "index": 1
        },
        "metallicFactor": 0,
        "metallicRoughnessTexture": {
          "index": 2
        }
      }
    }
  ],
  "meshes": [
    {
      "name": "Plane.032",
      "primitives": [
        {
          "attributes": {
            "POSITION": 0,
            "NORMAL": 1,
            "TEXCOORD_0": 2
          },
          "indices": 3,
          "material": 0
        }
      ]
    }
  ],
  "textures": [
    {
      "sampler": 0,
      "source": 0
    },
    {
      "sampler": 0,
      "source": 1
    },
    {
      "sampler": 0,
      "source": 2
    }
  ],
  "images": [
    {
      "mimeType": "image/jpeg",
      "name": "celandine_01_nor_gl",
      "uri": "../celadine//celandine_01_nor_gl_4k.jpg"
    },
    {
      "mimeType": "image/jpeg",
      "name": "celandine_01_diff",
      "uri": "../celadine//celandine_01_diff_4k.jpg"
    },
    {
      "mimeType": "image/jpeg",
      "name": "celandine_01_rough",
      "uri": "../celadine/celandine_01_arm_4k.jpg"
    }
  ],
  "accessors": [
    {
      "bufferView": 0,
      "componentType": 5126,
      "count": 8499,
      "max": [
        0.3870575428009033,
        0.1788182109594345,
        0.33515289425849915
      ],
      "min": [
        -0.34475401043891907,
        -0.007033416070044041,
        -0.4088073968887329
      ],
      "type": "VEC3"
    },
    {
      "bufferView": 1,
      "componentType": 5126,
      "count": 8499,
      "type": "VEC3"
    },
    {
      "bufferView": 2,
      "componentType": 5126,
      "count": 8499,
      "type": "VEC2"
    },
    {
      "bufferView": 3,
      "componentType": 5123,
      "count": 26898,
      "type": "SCALAR"
    }
  ],
  "bufferViews": [
    {
      "buffer": 0,
      "byteLength": 101988,
      "byteOffset": 0
    },
    {
      "buffer": 0,
      "byteLength": 101988,
      "byteOffset": 101988
    },
    {
      "buffer": 0,
      "byteLength": 67992,
      "byteOffset": 203976
    },
    {
      "buffer": 0,
      "byteLength": 53796,
      "byteOffset": 271968
    }
  ],
  "samplers": [
    {
      "magFilter": 9729,
      "minFilter": 9987
    }
  ],
  "buffers": [
    {
      "byteLength": 325764
    }
  ]
}